<?xml version="1.0" encoding="utf-8"?>
<!-- Generator: Adobe Illustrator 24.0.2, SVG Export Plug-In . SVG Version: 6.00 Build 0)  -->
<svg width="59" height="54" version="1.1" id="Capa_1" xmlns="http://www.w3.org/2000/svg" xmlns:xlink="http://www.w3.org/1999/xlink" x="0px" y="0px"
	 viewBox="0 0 512 512" style="enable-background:new 0 0 512 512;" xml:space="preserve">
<style type="text/css">
	.st0{fill:#001FAC;}
</style>
<g>
	<g>
		<g>
			<path class="st0" d="M306.6,139.2h-177c-5.2,0-9.5,4.2-9.5,9.4s4.2,9.4,9.5,9.4h177c5.2,0,9.5-4.2,9.5-9.4
				C316,143.4,311.8,139.2,306.6,139.2z"/>
		</g>
	</g>
	<g>
		<g>
			<path class="st0" d="M230.7,202.2H129.6c-5.2,0-9.5,4.2-9.5,9.4s4.2,9.4,9.5,9.4h101.1c5.2,0,9.5-4.2,9.5-9.4
				C240.2,206.4,235.9,202.2,230.7,202.2z"/>
		</g>
	</g>
	<g>
		<g>
			<path class="st0" d="M325.5,272c-22.7,0-41.1,18.3-41.1,41c0,22.6,18.4,40.9,41.1,40.9s41.1-18.3,41.1-40.9
				C366.6,290.4,348.2,272,325.5,272z M325.5,335c-12.2,0-22.1-9.9-22.1-22c0-12.2,9.9-22,22.1-22s22.1,9.9,22.1,22
				C347.7,325.1,337.7,335,325.5,335z"/>
		</g>
	</g>
	<g>
		<g>
			<path class="st0" d="M486.7,25.3H25.3C11.4,25.3,0,36.6,0,50.5v335.2c0,13.9,11.4,25.2,25.3,25.2h219.9l-14.5,38l0,0
				c-0.6,1.6-1,3.4-1,5.3c-0.1,3,1.2,6.7,3.9,9.1c2.7,2.5,6,3.3,8.8,3.3c1,0,1.9-0.1,2.8-0.3l23.6-4.2l0.9,0.2l0.4,0.2l14.9,18.8
				c1.1,1.4,2.4,2.7,4.2,3.7c1.7,1,3.9,1.7,6.3,1.7c3,0,6-1.2,8-3c2-1.7,3.3-3.8,4-5.9l19.7-51.7l19.7,51.7c0.8,2,2,4.1,4,5.9
				c2,1.7,5,3,8,3c2.4,0,4.6-0.7,6.3-1.7c1.7-1,3.1-2.3,4.2-3.7l0,0l14.9-18.8l0.7-0.4l0.7-0.1l23.6,4.2c0.9,0.2,1.8,0.3,2.8,0.3
				c2.8,0,6.1-0.8,8.8-3.3c2.7-2.4,4-6.1,3.9-9.1c0-1.9-0.4-3.7-1-5.3l0,0l-14.5-38h77.4c13.9,0,25.3-11.3,25.3-25.2V50.5
				C512,36.6,500.6,25.3,486.7,25.3z M293.5,461.5l-8.5-10.8l0,0c-2.2-2.7-4.7-4.4-7.4-5.6c-2.7-1.2-5.5-1.9-8.7-1.9
				c-1,0-2,0.1-3.1,0.3l-13.6,2.4l22-57.7c12.1,8.2,26.3,13.5,41.5,15.2L293.5,461.5z M325.5,384.9c-40.1,0-72.7-32.5-72.7-72.5
				c0-39.9,32.6-72.4,72.7-72.4s72.7,32.5,72.7,72.4C398.2,352.4,365.6,384.9,325.5,384.9z M236.8,335h-161V94.6h360.3V335h-21.9
				c1.9-7.2,2.9-14.8,2.9-22.6c0-50.4-41-91.3-91.7-91.3s-91.7,40.9-91.7,91.3C233.9,320.3,235,327.8,236.8,335z M388.8,443.4
				c-1.1-0.2-2.1-0.3-3.1-0.3c-3.2,0-6,0.7-8.7,1.9c-2.7,1.2-5.2,2.9-7.4,5.6l0,0l-8.5,10.8l-22.4-58.7c15.2-2.2,29.1-8,41-16.7
				l22.8,59.7L388.8,443.4z M493,385.7c0,3.4-2.9,6.3-6.3,6.3h-84.6l-7.5-19.6c4.9-5.6,9.1-11.7,12.5-18.4h41.7
				c3.5,0,6.3-2.8,6.3-6.3V82c0-3.5-2.8-6.3-6.3-6.3H63.2c-3.5,0-6.3,2.8-6.3,6.3v265.6c0,3.5,2.8,6.3,6.3,6.3h180.7
				c4,7.7,9,14.8,14.9,21.1l-6.5,16.9H25.3c-3.4,0-6.3-2.9-6.3-6.3V50.5c0-3.4,2.9-6.3,6.3-6.3h461.4c3.4,0,6.3,2.9,6.3,6.3
				L493,385.7L493,385.7z"/>
		</g>
	</g>
</g>
</svg>
