<?xml version="1.0" encoding="utf-8"?>
<!-- Generator: Adobe Illustrator 24.0.2, SVG Export Plug-In . SVG Version: 6.00 Build 0)  -->
<svg width="54" height="54" version="1.1" id="Слой_1" xmlns="http://www.w3.org/2000/svg" xmlns:xlink="http://www.w3.org/1999/xlink" x="0px" y="0px"
	 viewBox="0 0 235.3 235.3" style="enable-background:new 0 0 235.3 235.3;" xml:space="preserve">
<style type="text/css">
	.st0{fill:#001FAC;}
</style>
<title>homework</title>
<g id="Слой_2_1_">
	<g id="Слой_1-2">
		<path class="st0" d="M47.1,19.6v11.8h90.2v-7.8H54.9v-3.9c0-6.5,5.3-11.8,11.8-11.8h74.5V0H66.7C55.9,0,47.1,8.8,47.1,19.6z"/>
		<path class="st0" d="M47.1,86.3v129.4c0,10.8,8.8,19.6,19.6,19.6H153v-7.8H66.7c-6.5,0-11.8-5.3-11.8-11.8l0,0V204h90.2v-7.9H54.9
			V86.3H47.1z"/>
		<path class="st0" d="M180.4,102v49.4l-26.6-26.7c-6.9-6.9-18.2-6.9-25.2,0c-6.9,6.9-6.9,18.2,0,25.2l0,0l31.2,31.2l-1.7,3
			c-8.1,14.1-7.1,31.7,2.7,44.7v6.5h7.9v-7.8c0-0.9-0.3-1.8-0.9-2.4c-8.5-10.6-9.7-25.3-2.9-37l3.2-5.6c0.9-1.5,0.6-3.5-0.6-4.7
			l-33.3-33.3c-3.9-3.9-3.9-10.2,0-14.1c3.9-3.9,10.2-3.9,14.1,0l0,0l41.2,41.2l5.5-5.6l-6.7-6.7V102H180.4z"/>
		<rect x="113.7" y="211.8" class="st0" width="7.8" height="7.8"/>
		<path class="st0" d="M215.7,235.3v-78.3c0-10.4-3.8-20.5-10.6-28.3l-6-7.2l-6,5l6,7.3c5.6,6.4,8.7,14.7,8.7,23.2v78.3L215.7,235.3
			z"/>
		<rect x="129.4" y="98.1" class="st0" width="7.8" height="15.7"/>
		<path class="st0" d="M28.9,32.3c-0.9,0.7-1.4,1.8-1.5,3v39.3c0,2.2,1.7,3.9,3.9,3.9c0,0,0,0,0,0h0.6l34.7-5v16.8
			c0,6.5,5.2,11.8,11.7,11.8c0,0,0,0,0,0h19.6v82.4c0,2.2,1.7,3.9,3.9,3.9c0,0,0,0,0,0h31.4c2.2,0,3.9-1.8,3.9-3.9v-19.6h-7.9v15.7
			h-7.8V149h-7.8v31.4h-7.8V98.1c0-2.2-1.7-3.9-3.9-3.9H78.4c-2.2,0-3.9-1.8-3.9-3.9V72.3l7.8-1.1v11.2c0,2.2,1.8,3.9,3.9,3.9h47.1
			c6.5,0,11.8,5.3,11.8,11.8v15.7h7.9V98.1c0-10.8-8.8-19.6-19.6-19.6h-0.1c2.6-3.4,4-7.5,4-11.8v-7.8c0-10.8-8.8-19.6-19.6-19.6
			c-10.8,0-19.6,8.8-19.6,19.6v7.8c0,4.3,1.4,8.4,4,11.8H90.2V47.1c0-1.9-1.3-3.4-3.1-3.8L32.2,31.5C31,31.2,29.8,31.5,28.9,32.3z
			 M105.9,66.7v-7.8c0.2-6.5,5.6-11.6,12.1-11.4c6.2,0.2,11.2,5.2,11.4,11.4v7.8c-0.2,6.5-5.6,11.6-12.1,11.4
			C111.1,77.9,106.1,72.9,105.9,66.7z M35.3,40.2l47.1,10.1v13L35.3,70V40.2z"/>
		<path class="st0" d="M3,39.1l1.9-7.6l15.7,3.9L18.7,43L3,39.1z"/>
		<path class="st0" d="M3,70.7l15.7-3.9l1.9,7.6L4.9,78.3L3,70.7z"/>
		<rect y="51" class="st0" width="15.7" height="7.8"/>
		<path class="st0" d="M215.7,0h-47.1C157.8,0,149,8.8,149,19.6v39.2c0,10.8,8.8,19.6,19.6,19.6h3.1l-3,14.9c-0.4,2.1,1,4.2,3.1,4.6
			c1,0.2,2,0,2.8-0.5l30.4-19h10.6c10.8,0,19.6-8.8,19.6-19.6V19.6C235.3,8.8,226.5,0,215.7,0z M227.5,58.8
			c0,6.5-5.3,11.8-11.8,11.8H204c-0.7,0-1.5,0.2-2.1,0.6L178.2,86l2.1-10.7c0.4-2.1-0.9-4.2-3-4.6c-0.3-0.1-0.5-0.1-0.8-0.1h-7.8
			c-6.5,0-11.8-5.3-11.8-11.8v0V19.6c0-6.5,5.3-11.8,11.8-11.8h47.1c6.5,0,11.8,5.3,11.8,11.8c0,0,0,0,0,0V58.8z"/>
		<path class="st0" d="M215.7,27.5h-13.6l-6.7-10c-1.4-1.8-3.9-2.2-5.7-0.8c-0.3,0.2-0.6,0.5-0.8,0.8l-6.7,10h-13.6
			c-2.2,0-3.9,1.7-3.9,3.9c0,1,0.4,2,1.1,2.8l10.2,10.2l-3.4,13.5c-0.5,2.1,0.7,4.2,2.8,4.8c0.9,0.2,1.9,0.1,2.7-0.3l13.9-7l13.9,7
			c1.9,1,4.3,0.2,5.3-1.7c0.4-0.8,0.5-1.8,0.3-2.7l-3.4-13.5l10.2-10.2c1.5-1.5,1.6-4,0-5.5C217.8,27.9,216.8,27.5,215.7,27.5z
			 M201.2,40.4c-1,1-1.3,2.4-1,3.7l1.8,7.4l-8.1-4c-1.1-0.5-2.4-0.5-3.5,0l-8.1,4l1.9-7.4c0.3-1.3,0-2.7-1-3.7l-5.1-5.1h6.2
			c1.3,0,2.5-0.7,3.3-1.7l4.6-6.9l4.6,6.9c0.7,1.1,1.9,1.7,3.2,1.8h6.2L201.2,40.4z"/>
	</g>
</g>
</svg>
